<?xml version="1.0" encoding="UTF-8"?>
<svg width="261px" height="177px" viewBox="0 0 261 177" version="1.1" xmlns="http://www.w3.org/2000/svg" xmlns:xlink="http://www.w3.org/1999/xlink">
    <title>listings graphic</title>
    <g id="Content-Pages" stroke="none" stroke-width="1" fill="none" fill-rule="evenodd">
        <g id="About-Us-with-Edits" transform="translate(-360.000000, -1434.000000)">
            <g id="Group-4" transform="translate(362.000000, 1436.000000)">
                <ellipse id="Oval-Copy-8" stroke="#FF7951" stroke-width="2" fill="#FF7951" cx="7.53389831" cy="5.37974684" rx="4.66384181" ry="4.66244726"></ellipse>
                <line x1="29.4180791" y1="3.94514768" x2="159.288136" y2="3.94514768" id="Line-3-Copy-12" stroke="#FF7951" stroke-width="8" stroke-linecap="round"></line>
                <line x1="29.8027704" y1="15.4219409" x2="93.2768362" y2="15.7805907" id="Line-3-Copy-13" stroke="#FF7951" stroke-width="8" stroke-linecap="round"></line>
                <ellipse id="Oval" stroke="#000000" stroke-width="3" cx="4.66384181" cy="4.66244726" rx="4.66384181" ry="4.66244726"></ellipse>
                <ellipse id="Oval-Copy-5" stroke="#000000" stroke-width="3" cx="4.66384181" cy="120.147679" rx="4.66384181" ry="4.66244726"></ellipse>
                <ellipse id="Oval-Copy-3" stroke="#000000" stroke-width="3" cx="4.66384181" cy="43.3966245" rx="4.66384181" ry="4.66244726"></ellipse>
                <ellipse id="Oval-Copy-6" stroke="#000000" stroke-width="3" cx="4.66384181" cy="158.164557" rx="4.66384181" ry="4.66244726"></ellipse>
                <ellipse id="Oval-Copy-4" stroke="#000000" stroke-width="3" cx="4.66384181" cy="82.1308017" rx="4.66384181" ry="4.66244726"></ellipse>
                <line x1="24.0641575" y1="3.2278481" x2="154.596859" y2="3.2278481" id="Line-3" stroke="#000000" stroke-width="3" stroke-linecap="round"></line>
                <line x1="24.0641575" y1="41.2447257" x2="154.596859" y2="41.2447257" id="Line-3-Copy-2" stroke="#000000" stroke-width="3" stroke-linecap="round"></line>
                <line x1="24.0641282" y1="79.978903" x2="134.506493" y2="79.978903" id="Line-3-Copy-4" stroke="#000000" stroke-width="3" stroke-linecap="round"></line>
                <line x1="24.0657403" y1="118.71308" x2="128.764768" y2="118.71308" id="Line-3-Copy-6" stroke="#000000" stroke-width="3" stroke-linecap="round"></line>
                <line x1="24.0647824" y1="156.729958" x2="161.771376" y2="156.729958" id="Line-3-Copy-8" stroke="#000000" stroke-width="3" stroke-linecap="round"></line>
                <line x1="24.0662679" y1="13.9873418" x2="89.3009638" y2="13.9873418" id="Line-3-Copy" stroke="#000000" stroke-width="3" stroke-linecap="round"></line>
                <line x1="24.0650461" y1="52.0042194" x2="111.545123" y2="52.0042194" id="Line-3-Copy-3" stroke="#000000" stroke-width="3" stroke-linecap="round"></line>
                <line x1="24.0646504" y1="90.7383966" x2="152.443824" y2="90.7383966" id="Line-3-Copy-5" stroke="#000000" stroke-width="3" stroke-linecap="round"></line>
                <line x1="24.0617527" y1="129.472574" x2="56.2998292" y2="129.472574" id="Line-3-Copy-7" stroke="#000000" stroke-width="3" stroke-linecap="round"></line>
                <line x1="24.0661295" y1="168.206751" x2="70.6457349" y2="168.206751" id="Line-3-Copy-9" stroke="#000000" stroke-width="3" stroke-linecap="round"></line>
                <path d="M221.205935,91.0970464 L190.141243,104.551106 C190.141243,109.592302 190.141243,114.288906 190.141243,118.640919 C190.141243,155.754613 217.532823,170 221.205935,170 C224.879047,170 254,154.625713 254,118.640919 C254,115.063871 254,110.367267 254,104.551106 L221.205935,91.0970464 Z" id="Path-2" stroke="#D5DD6F" stroke-width="9" fill="#D5DD6F"></path>
                <path d="M212.595766,91.0970464 L181.531073,104.551106 C181.531073,109.592302 181.531073,114.288906 181.531073,118.640919 C181.531073,155.754613 208.922654,170 212.595766,170 C216.268877,170 245.389831,154.625713 245.389831,118.640919 C245.389831,115.063871 245.389831,110.367267 245.389831,104.551106 L212.595766,91.0970464 Z" id="Path-2" stroke="#000000" stroke-width="3"></path>
                <polyline id="Path-Copy-5" stroke="#000000" stroke-width="3" stroke-linecap="round" points="203.056497 130.49627 210.669107 139.156118 227.451977 117.637131"></polyline>
            </g>
        </g>
    </g>
</svg>